# Blender v3.0.1 OBJ File: 'lantern.blend'
# www.blender.org
mtllib lantern.mtl
o Cube.001_Cube.002
v -0.177553 -0.488856 0.177553
v -0.177553 -0.488856 -0.177553
v 0.177553 -0.488856 0.177553
v 0.177553 -0.488856 -0.177553
v -0.052578 -0.276579 0.052578
v -0.177553 -0.339947 0.177553
v -0.052578 -0.276579 -0.052578
v -0.177553 -0.339947 -0.177553
v 0.052578 -0.276579 0.052578
v 0.177553 -0.339947 0.177553
v 0.052578 -0.276579 -0.052578
v 0.177553 -0.339947 -0.177553
v -0.147987 -0.276579 0.147987
v -0.147987 -0.276579 -0.147987
v 0.147987 -0.276579 -0.147987
v 0.147987 -0.276579 0.147987
v -0.127707 -0.276579 0.127707
v -0.127707 -0.276579 -0.127707
v 0.127707 -0.276579 -0.127707
v 0.127707 -0.276579 0.127707
v -0.127707 0.014141 0.127707
v -0.127707 0.014141 -0.127707
v 0.127707 0.014141 -0.127707
v 0.127707 0.014141 0.127707
v -0.117267 0.014141 0.117267
v -0.117267 0.014141 -0.117267
v 0.117267 0.014141 -0.117267
v 0.117267 0.014141 0.117267
v -0.162147 0.055602 0.162147
v -0.162147 0.055602 -0.162147
v 0.162147 0.055602 -0.162147
v 0.162147 0.055602 0.162147
v -0.162147 0.081052 0.162147
v -0.070350 0.114988 0.070350
v -0.070350 0.114988 -0.070350
v -0.162147 0.081052 -0.162147
v 0.070350 0.114988 -0.070350
v 0.162147 0.081052 -0.162147
v 0.070350 0.114988 0.070350
v 0.162147 0.081052 0.162147
v -0.128211 0.114988 0.128211
v -0.128211 0.114988 -0.128211
v 0.128211 0.114988 -0.128211
v 0.128211 0.114988 0.128211
v -0.070350 0.222594 0.070350
v -0.070350 0.222594 -0.070350
v 0.070350 0.222594 -0.070350
v 0.070350 0.222594 0.070350
v -0.044801 0.264024 0.044801
v -0.044801 0.264024 -0.044801
v 0.044801 0.264024 -0.044801
v 0.044801 0.264024 0.044801
v -0.161812 -0.290404 0.033850
v -0.161812 -0.290404 -0.033850
v -0.187543 -0.316135 -0.042427
v -0.187543 -0.316135 0.042427
v -0.070350 0.114988 0.023450
v -0.070350 0.114988 -0.023450
v 0.070350 0.114988 -0.023450
v 0.070350 0.114988 0.023450
v -0.147987 -0.276579 0.049329
v -0.147987 -0.276579 -0.049329
v -0.187227 -0.275972 0.027701
v -0.187227 -0.275972 -0.027701
v -0.201975 -0.290720 -0.032617
v -0.201975 -0.290720 0.032617
v -0.181735 -0.270480 0.033850
v -0.181735 -0.270480 -0.033850
v -0.207467 -0.296212 -0.042427
v -0.207467 -0.296212 0.042427
v -0.078640 -0.384560 0.027701
v -0.078640 -0.384560 -0.027701
v -0.093387 -0.399307 -0.032617
v -0.093387 -0.399307 0.032617
v 0.070350 0.150857 0.023450
v 0.070350 0.186725 0.023450
v 0.070350 0.150857 -0.023450
v 0.070350 0.186725 -0.023450
v -0.070350 0.150857 -0.023450
v -0.070350 0.186725 -0.023450
v -0.070350 0.150857 0.023450
v -0.070350 0.186725 0.023450
v -0.127766 0.150857 -0.023450
v -0.127766 0.150857 0.023450
v 0.127766 0.150857 0.023450
v 0.127766 0.150857 -0.023450
v 0.099058 0.186725 0.023450
v 0.099058 0.186725 -0.023450
v -0.099058 0.186725 -0.023450
v -0.099058 0.186725 0.023450
v -0.127766 0.367640 0.023450
v -0.127766 0.367640 -0.023450
v -0.099058 0.367640 -0.023450
v 0.127766 0.367640 -0.023450
v 0.127766 0.367640 0.023450
v 0.099058 0.367640 0.023450
v 0.099058 0.367640 -0.023450
v -0.099058 0.367640 0.023450
v -0.127766 0.397077 0.023450
v -0.127766 0.397077 -0.023450
v 0.127766 0.397077 -0.023450
v 0.127766 0.397077 0.023450
v -0.117267 -0.276579 0.117267
v -0.117267 -0.276579 -0.117267
v 0.117267 -0.276579 -0.117267
v 0.117267 -0.276579 0.117267
v -0.052578 -0.267885 0.052578
v -0.031196 -0.246503 0.031196
v -0.031196 -0.246503 -0.031196
v -0.052578 -0.267885 -0.052578
v 0.031196 -0.246503 -0.031196
v 0.052578 -0.267885 -0.052578
v 0.031196 -0.246503 0.031196
v 0.052578 -0.267885 0.052578
v -0.031196 -0.246503 -0.003122
v 0.031196 -0.246503 -0.003122
v -0.031196 -0.246503 0.003122
v 0.031196 -0.246503 0.003122
v 0.003900 -0.246503 -0.031196
v 0.003900 -0.246503 0.031196
v 0.003900 -0.246503 0.003122
v 0.003900 -0.246503 -0.003122
v -0.003900 -0.246503 0.003122
v -0.003900 -0.246503 0.031196
v -0.003900 -0.246503 -0.003122
v -0.003900 -0.246503 -0.031196
v -0.031196 -0.104275 0.003122
v -0.031196 -0.104275 -0.003122
v 0.031196 -0.104275 -0.003122
v 0.031196 -0.104275 0.003122
v 0.003900 -0.104275 -0.003122
v -0.003900 -0.104275 0.003122
v -0.003900 -0.104275 -0.031196
v 0.003900 -0.104275 -0.031196
v 0.003900 -0.104275 0.003122
v -0.003900 -0.104275 -0.003122
v 0.003900 -0.104275 0.031196
v -0.003900 -0.104275 0.031196
v -0.099058 0.150857 -0.023450
v 0.099058 0.150857 -0.023450
v -0.099058 0.150857 0.023450
v 0.099058 0.150857 0.023450
vt 0.679381 0.376872
vt 0.676069 0.271637
vt 0.685421 0.278574
vt 0.686309 0.367529
vt 0.762334 0.095884
vt 0.762334 0.505411
vt 0.587947 0.511745
vt 0.587947 0.095884
vt 0.544159 0.407558
vt 0.544159 0.049166
vt 0.902551 0.049166
vt 0.902551 0.407558
vt 0.902551 0.557846
vt 0.544159 0.557846
vt 0.782345 0.331298
vt 0.816938 0.322610
vt 0.837842 0.340424
vt 0.841791 0.443201
vt 0.839327 0.154951
vt 0.836870 0.254731
vt 0.816663 0.272322
vt 0.782495 0.263679
vt 0.855047 0.625026
vt 0.591663 0.625026
vt 0.848141 0.191996
vt 0.848141 0.455380
vt 0.780960 0.502884
vt 0.780960 0.144492
vt 0.603022 0.440295
vt 0.603022 0.176911
vt 0.670203 0.129407
vt 0.670203 0.487799
vt 0.820490 0.487799
vt 0.820490 0.129407
vt 0.852263 0.321090
vt 0.624972 0.321090
vt 0.606926 0.303043
vt 0.870310 0.303043
vt 0.866187 0.210042
vt 0.866187 0.437333
vt 0.584976 0.422248
vt 0.584976 0.194957
vt 0.028098 0.022773
vt 0.408611 0.022773
vt 0.408611 0.494442
vt 0.028098 0.494442
vt 0.028093 0.022773
vt 0.408606 0.022773
vt 0.408606 0.494442
vt 0.028093 0.494442
vt 0.017006 0.521469
vt 0.431395 0.521469
vt 0.431395 0.993138
vt 0.017006 0.993138
vt 0.017001 0.521469
vt 0.431390 0.521469
vt 0.431390 0.993139
vt 0.017001 0.993139
vt 0.849214 0.085557
vt 0.640504 0.085557
vt 0.631213 0.076267
vt 0.858504 0.076267
vt 0.640504 0.294267
vt 0.631213 0.303558
vt 0.849214 0.294267
vt 0.858504 0.303557
vt 0.017021 0.521469
vt 0.431411 0.521469
vt 0.431411 0.993139
vt 0.017021 0.993139
vt 0.028105 0.022773
vt 0.408619 0.022773
vt 0.408619 0.494442
vt 0.028105 0.494442
vt 0.017016 0.521469
vt 0.431405 0.521469
vt 0.431405 0.993139
vt 0.017016 0.993138
vt 0.028092 0.022773
vt 0.408606 0.022772
vt 0.408606 0.494442
vt 0.028092 0.494442
vt 0.721483 0.561744
vt 0.726574 0.324138
vt 0.772039 0.326643
vt 0.770939 0.594857
vt 0.592635 0.561744
vt 0.597726 0.324138
vt 0.643191 0.326643
vt 0.642090 0.594857
vt 0.592635 0.091848
vt 0.651383 0.056899
vt 0.721483 0.091848
vt 0.780231 0.056900
vt 0.678530 0.058320
vt 0.663104 0.326505
vt 0.807379 0.058320
vt 0.791952 0.326505
vt 0.797592 0.594854
vt 0.849317 0.092733
vt 0.832371 0.328795
vt 0.720469 0.092732
vt 0.703523 0.328795
vt 0.848279 0.557560
vt 0.716003 0.332782
vt 0.687179 0.422165
vt 0.654051 0.400908
vt 0.672639 0.327997
vt 0.853097 0.248614
vt 0.773361 0.248614
vt 0.773361 0.168878
vt 0.853097 0.168878
vt 0.630459 0.110046
vt 0.704014 0.226133
vt 0.656940 0.243210
vt 0.598577 0.166742
vt 0.609965 0.495405
vt 0.598577 0.450990
vt 0.857493 0.177693
vt 0.860345 0.419012
vt 0.736969 0.312286
vt 0.730524 0.317636
vt 0.728575 0.317624
vt 0.722161 0.312281
vt 0.763367 0.300291
vt 0.754724 0.334459
vt 0.742281 0.323339
vt 0.747537 0.308059
vt 0.630673 0.502884
vt 0.630673 0.144492
vt 0.719431 0.557560
vt 0.668744 0.594854
vt 0.702799 0.355384
vt 0.744535 0.355384
vt 0.786271 0.355384
vt 0.837761 0.406874
vt 0.609573 0.406874
vt 0.661063 0.355384
vt 0.744535 0.230175
vt 0.702799 0.230175
vt 0.661063 0.230175
vt 0.609573 0.178685
vt 0.837761 0.178685
vt 0.786271 0.230175
vt 0.723708 0.319162
vt 0.728847 0.317283
vt 0.730245 0.317257
vt 0.735472 0.319118
vt 0.704436 0.334734
vt 0.716858 0.323490
vt 0.695748 0.300141
vt 0.711656 0.308016
vt 0.809306 0.245394
vt 0.813587 0.297221
vt 0.775717 0.297434
vt 0.771979 0.251175
vt 0.740186 0.561548
vt 0.698450 0.561548
vt 0.698450 0.536001
vt 0.698450 0.510455
vt 0.740186 0.510455
vt 0.740186 0.536001
vt 0.729903 0.500165
vt 0.703002 0.530270
vt 0.680583 0.509579
vt 0.706808 0.480782
vt 0.668827 0.536340
vt 0.668827 0.567790
vt 0.643655 0.567790
vt 0.643655 0.536340
vt 0.684775 0.462629
vt 0.658779 0.489083
vt 0.675326 0.559388
vt 0.755434 0.468208
vt 0.810018 0.349553
vt 0.739080 0.257519
vt 0.741952 0.297577
vt 0.798259 0.192919
vt 0.817428 0.335441
vt 0.802283 0.377712
vt 0.643655 0.377712
vt 0.643655 0.336590
vt 0.660915 0.501209
vt 0.674904 0.467751
vt 0.701683 0.478947
vt 0.687694 0.512405
vt 0.680095 0.142102
vt 0.680151 0.118615
vt 0.699417 0.114664
vt 0.707237 0.148794
vt 0.858504 0.343618
vt 0.837147 0.356161
vt 0.851697 0.324095
vt 0.819585 0.386081
vt 0.660915 0.177187
vt 0.682391 0.188927
vt 0.772242 0.310190
vt 0.789887 0.281367
vt 0.811236 0.279764
vt 0.799021 0.321386
vt 0.618484 0.377712
vt 0.618484 0.336590
vt 0.698450 0.265433
vt 0.698450 0.072519
vt 0.740186 0.072519
vt 0.740186 0.265433
vt 0.698450 0.317540
vt 0.740186 0.317540
vt 0.864383 0.265394
vt 0.872603 0.359003
vt 0.825406 0.334229
vt 0.829338 0.295627
vt 0.655633 0.328770
vt 0.659564 0.290168
vt 0.620588 0.359003
vt 0.612367 0.265394
vt 0.784654 0.373723
vt 0.781343 0.268488
vt 0.840772 0.212242
vt 0.840917 0.433118
vt 0.619807 0.212242
vt 0.619952 0.433118
vt 0.775303 0.366787
vt 0.774415 0.277831
vt 0.753561 0.346027
vt 0.755018 0.326033
vt 0.755594 0.320686
vt 0.753723 0.299593
vt 0.734343 0.298158
vt 0.727714 0.297455
vt 0.707163 0.299333
vt 0.705706 0.319327
vt 0.705130 0.324674
vt 0.707001 0.345767
vt 0.726381 0.347202
vt 0.733010 0.347905
vt 0.933743 0.699870
vt 0.944831 0.699870
vt 0.944831 0.952414
vt 0.933742 0.952414
vt 0.732374 0.059659
vt 0.613852 0.699870
vt 0.663701 0.699870
vt 0.663701 0.952414
vt 0.613852 0.952414
vt 0.501686 0.699870
vt 0.550154 0.699870
vt 0.550155 0.952414
vt 0.501686 0.952414
vt 0.885273 0.699870
vt 0.885273 0.952414
vt 0.727214 0.325076
vt 0.727340 0.320128
vt 0.600004 0.699870
vt 0.600004 0.952414
vt 0.733384 0.325233
vt 0.733510 0.320285
vt 0.979631 0.972986
vt 0.980458 0.974334
vt 0.980274 0.974651
vt 0.979447 0.973304
vt 0.978620 0.974729
vt 0.978383 0.974344
vt 0.979210 0.972919
vt 0.978383 0.971571
vt 0.978567 0.971254
vt 0.979394 0.972601
vt 0.980222 0.971176
vt 0.980458 0.971561
vt 0.835424 0.699870
vt 0.835424 0.952414
vt 0.821576 0.699870
vt 0.821576 0.952414
vt 0.771727 0.699870
vt 0.771727 0.952414
vt 0.712170 0.699870
vt 0.723258 0.699870
vt 0.723258 0.952414
vt 0.712170 0.952414
vt 0.740186 0.316527
vt 0.698450 0.316527
vt 0.698450 0.290980
vt 0.740186 0.290980
vt 0.718684 0.110714
vt 0.643012 0.315435
vt 0.844890 0.304571
vt 0.714472 0.523602
vt 0.618484 0.567790
vn 1.0000 0.0000 0.0000
vn -1.0000 0.0000 0.0000
vn 0.0000 -1.0000 0.0000
vn 0.0000 0.0000 -1.0000
vn -0.9373 0.3485 0.0000
vn 0.0000 0.4228 -0.9062
vn 0.9062 0.4228 0.0000
vn 0.0000 0.4228 0.9062
vn 0.0000 0.0000 1.0000
vn 0.0000 1.0000 0.0000
vn 0.7692 -0.6390 0.0000
vn -0.7692 -0.6390 0.0000
vn 0.0000 -0.6390 0.7692
vn 0.0000 -0.6390 -0.7692
vn 0.0000 0.7071 -0.7071
vn 0.0000 0.7071 0.7071
vn 0.7071 0.7071 0.0000
vn 0.0000 0.5249 0.8512
vn 0.0000 0.5249 -0.8512
vn 0.8512 0.5249 0.0000
vn -0.8512 0.5249 0.0000
vn 0.1622 0.1622 0.9733
vn -0.7071 0.7071 0.0000
vn -0.7071 -0.7071 0.0000
vn 0.1622 0.1622 -0.9733
vn -0.1622 -0.1622 0.9733
vn -0.1622 -0.1622 -0.9733
usemtl Material.001
s off
f 9/1/1 11/2/1 112/3/1 114/4/1
f 6/5/2 8/6/2 2/7/2 1/8/2
f 4/9/3 3/10/3 1/11/3 2/12/3
f 2/12/4 8/13/4 12/14/4 4/9/4
f 55/15/5 54/16/5 62/17/5 14/18/5 8/6/5 6/5/5 13/19/5 61/20/5 53/21/5 56/22/5
f 14/23/6 15/24/6 12/14/6 8/13/6
f 15/25/7 16/26/7 10/27/7 12/28/7
f 16/29/8 13/30/8 6/31/8 10/32/8
f 3/33/9 10/32/9 6/31/9 1/34/9
f 18/35/10 19/36/10 15/37/10 14/38/10
f 19/39/10 20/40/10 16/26/10 15/25/10
f 20/41/10 17/42/10 13/30/10 16/29/10
f 103/43/1 104/44/1 26/45/1 25/46/1
f 105/47/2 106/48/2 28/49/2 27/50/2
f 19/51/4 18/52/4 22/53/4 23/54/4
f 17/55/9 20/56/9 24/57/9 21/58/9
f 25/59/10 26/60/10 22/61/10 21/62/10
f 26/60/10 27/63/10 23/64/10 22/61/10
f 27/63/10 28/65/10 24/66/10 23/64/10
f 28/65/10 25/59/10 21/62/10 24/66/10
f 20/67/1 19/68/1 23/69/1 24/70/1
f 106/71/4 103/72/4 25/73/4 28/74/4
f 18/75/2 17/76/2 21/77/2 22/78/2
f 104/79/9 105/80/9 27/81/9 26/82/9
f 24/83/11 23/84/11 31/85/11 32/86/11
f 22/87/12 21/88/12 29/89/12 30/90/12
f 21/88/13 24/91/13 32/92/13 29/89/13
f 23/84/14 22/93/14 30/94/14 31/85/14
f 29/89/9 32/92/9 40/95/9 33/96/9
f 31/85/4 30/94/4 36/97/4 38/98/4
f 32/86/1 31/85/1 38/98/1 40/99/1
f 42/100/15 43/101/15 38/98/15 36/97/15
f 44/102/16 41/103/16 33/96/16 40/95/16
f 43/101/17 44/104/17 40/99/17 38/98/17
f 45/105/18 48/106/18 52/107/18 49/108/18
f 52/109/10 51/110/10 50/111/10 49/112/10
f 47/113/19 46/114/19 50/115/19 51/116/19
f 48/106/20 47/117/20 51/118/20 52/107/20
f 46/114/21 45/105/21 49/108/21 50/115/21
f 17/119/10 18/120/10 14/18/10 62/17/10 61/20/10 13/19/10
f 66/121/17 74/122/17 73/123/17 65/124/17
f 56/125/22 53/126/22 67/127/22 70/128/22
f 12/28/1 10/27/1 3/129/1 4/130/1
f 41/103/23 42/131/23 36/132/23 33/96/23
f 57/133/10 58/134/10 35/135/10 42/136/10 41/137/10 34/138/10
f 30/90/2 29/89/2 33/96/2 36/132/2
f 59/139/10 60/140/10 39/141/10 34/138/10 41/137/10 44/142/10 43/143/10 42/136/10 35/135/10 37/144/10
f 54/16/23 53/21/23 61/20/23 62/17/23
f 64/145/24 72/146/24 71/147/24 63/148/24
f 53/126/17 54/149/17 68/150/17 67/127/17
f 54/149/25 55/151/25 69/152/25 68/150/25
f 55/151/24 56/125/24 70/128/24 69/152/24
f 64/145/23 63/148/23 67/127/23 68/150/23
f 66/121/23 65/124/23 69/152/23 70/128/23
f 63/148/23 66/121/23 70/128/23 67/127/23
f 65/124/23 64/145/23 68/150/23 69/152/23
f 65/124/26 73/123/26 72/146/26 64/145/26
f 66/121/27 63/148/27 71/147/27 74/122/27
f 71/147/23 72/146/23 73/123/23 74/122/23
f 58/153/2 57/154/2 81/155/2 79/156/2
f 75/157/3 77/158/3 140/159/3 86/160/3 85/161/3 142/162/3
f 60/163/1 59/164/1 77/165/1 75/166/1
f 76/167/9 75/168/9 142/169/9 87/170/9
f 75/166/1 76/171/1 78/172/1 77/165/1 59/164/1 37/173/1 47/117/1 48/106/1 39/174/1 60/163/1
f 39/174/9 48/106/9 45/105/9 34/175/9
f 80/176/2 82/177/2 81/155/2 57/154/2 34/175/2 45/105/2 46/114/2 35/178/2 58/153/2 79/156/2
f 88/179/2 87/180/2 96/181/2 97/182/2
f 81/183/9 82/184/9 90/185/9 141/186/9
f 80/187/4 79/188/4 139/189/4 89/190/4
f 77/191/4 78/192/4 88/179/4 140/193/4
f 78/192/10 76/194/10 87/180/10 88/179/10
f 82/195/10 80/187/10 89/190/10 90/196/10
f 98/197/10 93/198/10 92/199/10 91/200/10
f 97/182/10 96/181/10 95/201/10 94/202/10
f 90/196/1 89/190/1 93/198/1 98/197/1
f 84/203/2 91/204/2 92/205/2 83/206/2
f 86/160/1 94/207/1 95/208/1 85/161/1
f 95/209/1 94/210/1 101/211/1 102/212/1
f 100/213/10 99/214/10 102/212/10 101/211/10
f 92/215/2 91/216/2 99/214/2 100/213/2
f 91/216/9 95/209/9 102/212/9 99/214/9
f 94/210/4 92/215/4 100/213/4 101/211/4
f 5/217/10 7/218/10 104/219/10 103/220/10
f 7/218/10 11/2/10 105/221/10 104/219/10
f 11/2/10 9/1/10 106/222/10 105/221/10
f 9/1/10 5/217/10 103/220/10 106/222/10
f 5/217/9 9/1/9 114/4/9 107/223/9
f 11/2/4 7/218/4 110/224/4 112/3/4
f 108/225/23 117/226/23 115/227/23 109/228/23 110/224/23 107/223/23
f 109/228/15 126/229/15 119/230/15 111/231/15 112/3/15 110/224/15
f 111/231/17 116/232/17 118/233/17 113/234/17 114/4/17 112/3/17
f 113/234/16 120/235/16 124/236/16 108/225/16 107/223/16 114/4/16
f 7/218/2 5/217/2 107/223/2 110/224/2
f 118/237/1 116/238/1 129/239/1 130/240/1
f 37/241/4 35/178/4 46/114/4 47/113/4
f 126/242/2 125/243/2 136/244/2 133/245/2
f 116/246/4 122/247/4 131/248/4 129/249/4
f 121/250/9 118/237/9 130/240/9 135/251/9
f 118/233/10 121/252/10 120/235/10 113/234/10
f 116/232/10 111/231/10 119/230/10 122/253/10
f 119/254/4 126/242/4 133/245/4 134/255/4
f 117/226/10 108/225/10 124/236/10 123/256/10
f 115/227/10 125/257/10 126/229/10 109/228/10
f 135/258/10 130/259/10 129/260/10 131/261/10 134/262/10 133/263/10 136/264/10 128/265/10 127/266/10 132/267/10 138/268/10 137/269/10
f 120/270/1 121/250/1 135/251/1 137/271/1
f 124/272/9 120/270/9 137/271/9 138/273/9
f 123/274/2 124/272/2 138/273/2 132/275/2
f 115/276/2 117/277/2 127/278/2 128/279/2
f 125/243/4 115/276/4 128/279/4 136/244/4
f 117/277/9 123/274/9 132/275/9 127/278/9
f 122/247/1 119/254/1 134/255/1 131/248/1
f 79/280/3 81/281/3 141/282/3 84/203/3 83/206/3 139/283/3
f 89/190/4 139/189/4 83/284/4 92/199/4 93/198/4
f 140/193/4 88/179/4 97/182/4 94/285/4 86/286/4
f 141/186/9 90/185/9 98/197/9 91/200/9 84/287/9
f 87/170/9 142/169/9 85/288/9 95/201/9 96/181/9
